<svg xmlns="http://www.w3.org/2000/svg" width="274.901" height="79.421" viewBox="0 0 274.901 79.421">
    <g id="Groupe_3636" data-name="Groupe 3636" transform="translate(0)">
        <path id="Tracé_12979" data-name="Tracé 12979" d="M0-30.973C3.144-19.027,13.988-16.12,23.586-16.12c13.447,0,21.384-5.657,21.384-16.977,0-11.877-8.958-15.338-17.056-16.912C20.2-51.582,14.931-52.29,14.931-56.931c0-2.91,2.124-4.877,7.16-4.877,5.508,0,8.655,2.2,9.992,6.214l12.573-3.382C41.591-68.8,33.576-73.357,22.327-73.357c-12.347,0-20.833,5.578-20.833,16.82,0,11.642,9.272,15.1,16.742,16.912C25-37.974,31.612-38.289,31.612-33.019c0,3.54-3.069,5.27-8.1,5.27-5.98,0-9.834-2.438-10.934-6.607Z" transform="translate(0 73.357)" fill="#fa0207"/>
        <path id="Tracé_12980" data-name="Tracé 12980" d="M45.613-44.739c0,16.833,12.18,28.619,29.012,28.619s29.012-11.786,29.012-28.619S91.457-73.357,74.625-73.357,45.613-61.571,45.613-44.739Zm13.28,0c0-9.911,6.607-16.2,15.732-16.2s15.732,6.293,15.732,16.2c0,9.833-6.608,16.125-15.732,16.125S58.893-34.906,58.893-44.739Z" transform="translate(3.771 73.357)" fill="#fa0207"/>
        <path id="Tracé_12981" data-name="Tracé 12981" d="M145.391-36.951c-2.2,4.562-6.683,8.338-13.918,8.338-8.493,0-14.548-6.371-14.548-16.125,0-9.6,5.661-16.2,14.626-16.2a14.968,14.968,0,0,1,13.211,7l13.054-3.54c-3.7-8.883-12.975-15.876-25.635-15.876-16.434,0-28.535,11.707-28.535,28.461,0,17.226,12.1,28.776,28.535,28.776,11.953,0,22.1-6.679,26.186-17.37Z" transform="translate(8.568 73.357)" fill="#fa0207"/>
        <path id="Tracé_12982" data-name="Tracé 12982" d="M199.793-36.951c-2.2,4.562-6.684,8.338-13.919,8.338-8.492,0-14.548-6.371-14.548-16.125,0-9.6,5.661-16.2,14.627-16.2a14.971,14.971,0,0,1,13.211,7l13.054-3.54c-3.7-8.883-12.976-15.876-25.635-15.876-16.435,0-28.536,11.707-28.536,28.461,0,17.226,12.1,28.776,28.536,28.776,11.953,0,22.1-6.679,26.185-17.37Z" transform="translate(13.065 73.357)" fill="#fa0207"/>
        <path id="Tracé_12983" data-name="Tracé 12983" d="M212.376-30.973c3.144,11.946,13.988,14.853,23.586,14.853,13.448,0,21.384-5.657,21.384-16.977,0-11.877-8.958-15.338-17.056-16.912-7.711-1.573-12.982-2.281-12.982-6.922,0-2.91,2.124-4.877,7.16-4.877,5.509,0,8.656,2.2,9.993,6.214l12.572-3.382C253.968-68.8,245.953-73.357,234.7-73.357c-12.347,0-20.833,5.578-20.833,16.82,0,11.642,9.272,15.1,16.741,16.912,6.767,1.652,13.376,1.337,13.376,6.607,0,3.54-3.068,5.27-8.1,5.27-5.981,0-9.834-2.438-10.934-6.607Z" transform="translate(17.555 73.357)" fill="#fa0207"/>
    </g>
</svg>
